<svg width="24" height="25" viewBox="0 0 24 25" fill="none" xmlns="http://www.w3.org/2000/svg">
<path d="M23.6119 14.3182L22.6991 12.9147C22.535 12.6629 22.535 12.3373 22.6991 12.0849L23.6123 10.6809C24.4437 9.40029 23.8811 7.68493 22.4624 7.14245L20.8998 6.54348C20.619 6.43587 20.4273 6.1722 20.4118 5.872L20.3258 4.20004C20.248 2.67979 18.7897 1.61779 17.3165 2.01222L15.7008 2.44703C15.4115 2.52486 15.1003 2.42472 14.9118 2.19074L13.8596 0.8885C12.9019 -0.297281 11.0946 -0.295328 10.1398 0.88933L9.08756 2.19083C8.89909 2.42486 8.58846 2.5255 8.29911 2.44713L6.68347 2.01261C5.21424 1.61667 3.75164 2.67794 3.6736 4.20014L3.58761 5.87239C3.57224 6.17254 3.38108 6.43601 3.10023 6.54358L1.53768 7.14206C0.117201 7.6863 -0.443584 9.40244 0.388199 10.6821L1.30031 12.0845C1.46438 12.3368 1.46438 12.663 1.30085 12.9148L0.388199 14.3183C-0.443193 15.595 0.116323 17.3143 1.53768 17.8577L3.10023 18.4564C3.38108 18.5642 3.57224 18.8277 3.58761 19.1279L3.6736 20.8001C3.75149 22.3202 5.21097 23.3828 6.68347 22.9877L8.29911 22.5526C8.58797 22.475 8.89801 22.5749 9.0881 22.8098L10.1399 24.1113C11.0957 25.2946 12.9001 25.2977 13.8602 24.1118L14.9119 22.8098C15.1015 22.575 15.411 22.4756 15.7004 22.5526L17.3176 22.9882C18.7841 23.3815 20.2478 22.3245 20.3258 20.8001L20.4118 19.1284C20.4272 18.8278 20.6189 18.5642 20.8998 18.4564L22.4624 17.8582C23.8824 17.3142 24.4437 15.5979 23.6119 14.3182ZM8.70154 8.10299C9.60096 8.10299 10.3326 8.83502 10.3326 9.73486C10.3326 10.6348 9.60091 11.3667 8.70154 11.3667C7.80211 11.3667 7.07052 10.6347 7.07052 9.73486C7.07052 8.83502 7.80216 8.10299 8.70154 8.10299ZM14.682 17.3504C13.7826 17.3504 13.051 16.6183 13.051 15.7185C13.051 14.8186 13.7826 14.0866 14.682 14.0866C15.5814 14.0866 16.313 14.8187 16.313 15.7185C16.313 16.6184 15.5814 17.3504 14.682 17.3504ZM16.0742 9.49585L8.46265 17.1113C8.14407 17.4301 7.62804 17.4301 7.30946 17.1113C6.99093 16.7926 6.99093 16.2762 7.30946 15.9575L14.9209 8.34205C15.2395 8.02335 15.7556 8.02335 16.0741 8.34205C16.3927 8.66075 16.3927 9.1771 16.0742 9.49585Z" fill="#FD9927"/>
</svg>
