<svg width="28" height="25" viewBox="0 0 28 25" fill="none" xmlns="http://www.w3.org/2000/svg">
<path d="M25.7787 2.44657C24.3293 0.868907 22.3405 0 20.1782 0C18.5619 0 17.0817 0.512812 15.7786 1.52407C15.1211 2.03452 14.5253 2.65903 14 3.38794C13.4749 2.65925 12.8789 2.03452 12.2212 1.52407C10.9183 0.512812 9.43808 0 7.82181 0C5.65952 0 3.67047 0.868907 2.22104 2.44657C0.78891 4.00581 0 6.13595 0 8.44489C0 10.8214 0.882477 12.9967 2.7771 15.2911C4.47198 17.3434 6.90793 19.4268 9.72882 21.8393C10.692 22.6632 11.7839 23.5971 12.9176 24.5918C13.2171 24.8551 13.6014 25 14 25C14.3984 25 14.7829 24.8551 15.082 24.5922C16.2157 23.5973 17.3082 22.663 18.2718 21.8387C21.0923 19.4266 23.5282 17.3434 25.2231 15.2909C27.1177 12.9967 28 10.8214 28 8.44467C28 6.13595 27.2111 4.00581 25.7787 2.44657Z" fill="#F65A5B"/>
</svg>
