<svg width="19" height="25" viewBox="0 0 19 25" fill="none" xmlns="http://www.w3.org/2000/svg">
<path d="M9.43026 0C4.23026 0 0 4.23026 0 9.42961C0 16.9158 8.41842 24.4362 8.77697 24.7533C8.96447 24.9178 9.19737 25 9.43026 25C9.67237 25 9.91447 24.9112 10.1033 24.7342C10.4605 24.4 18.8605 16.4658 18.8605 9.43026C18.8605 4.23092 14.6289 0 9.43026 0ZM9.43026 13.9263C6.94671 13.9263 4.93421 11.9125 4.93421 9.43092C4.93421 6.94934 6.94671 4.93553 9.43026 4.93553C11.9125 4.93553 13.925 6.94868 13.925 9.43092C13.925 11.9132 11.9125 13.9263 9.43026 13.9263Z" fill="#19769F"/>
</svg>
