<svg width="23" height="25" viewBox="0 0 23 25" fill="none" xmlns="http://www.w3.org/2000/svg">
<path d="M19.3775 2.70804H18.6243V1.8863C18.6243 0.845749 17.8032 0 16.7929 0C15.7818 0 14.9615 0.845749 14.9615 1.8863V2.70736H13.082V1.8863C13.082 0.845749 12.261 0 11.2506 0C10.2402 0 9.41916 0.845749 9.41916 1.8863V2.70736H7.53971V1.8863C7.53971 0.845749 6.71866 0 5.70829 0C4.69792 0 3.87686 0.845749 3.87686 1.8863V2.70736H2.91519C1.30806 2.70736 0 4.01542 0 5.62255V22.0848C0 23.6919 1.30806 25 2.91519 25H19.3775C20.9853 25 22.2926 23.6919 22.2926 22.0848V5.62255C22.2926 4.01611 20.9846 2.70804 19.3775 2.70804ZM15.9903 1.8863C15.9903 1.4137 16.3505 1.02889 16.7929 1.02889C17.236 1.02889 17.5954 1.4137 17.5954 1.8863V5.2446C17.5954 5.71721 17.236 6.10201 16.7929 6.10201C16.3505 6.10201 15.9903 5.71721 15.9903 5.2446V1.8863ZM10.448 1.8863C10.448 1.4137 10.8082 1.02889 11.2506 1.02889C11.693 1.02889 12.0531 1.4137 12.0531 1.8863V5.2446C12.0531 5.71721 11.693 6.10201 11.2506 6.10201C10.8082 6.10201 10.448 5.71721 10.448 5.2446V1.8863ZM4.90507 1.8863C4.90507 1.4137 5.26518 1.02889 5.7076 1.02889C6.15003 1.02889 6.51014 1.4137 6.51014 1.8863V5.2446C6.51014 5.71721 6.15003 6.10201 5.7076 6.10201C5.26518 6.10201 4.90507 5.71721 4.90507 5.2446V1.8863ZM20.5778 22.0855C20.5778 22.7474 20.0394 23.2859 19.3775 23.2859H2.91519C2.25327 23.2859 1.71482 22.7474 1.71482 22.0855V6.99509H20.5778V22.0855Z" fill="#00B59C"/>
<path d="M6.40989 10.0323H3.25806V12.8371H6.40989V10.0323Z" fill="#00B59C"/>
<path d="M10.6174 10.0323H7.46484V12.8371H10.6174V10.0323Z" fill="#00B59C"/>
<path d="M14.8269 10.0323H11.675V12.8371H14.8269V10.0323Z" fill="#00B59C"/>
<path d="M19.0346 10.0323H15.8821V12.8371H19.0346V10.0323Z" fill="#00B59C"/>
<path d="M6.40989 13.7761H3.25806V16.5788H6.40989V13.7761Z" fill="#00B59C"/>
<path d="M10.6174 13.7761H7.46484V16.5788H10.6174V13.7761Z" fill="#00B59C"/>
<path d="M14.8269 13.7761H11.675V16.5788H14.8269V13.7761Z" fill="#00B59C"/>
<path d="M19.0346 13.7761H15.8821V16.5788H19.0346V13.7761Z" fill="#00B59C"/>
<path d="M6.40989 17.5186H3.25806V20.3213H6.40989V17.5186Z" fill="#00B59C"/>
<path d="M10.6174 17.5186H7.46484V20.3213H10.6174V17.5186Z" fill="#00B59C"/>
<path d="M14.8269 17.5186H11.675V20.3213H14.8269V17.5186Z" fill="#00B59C"/>
<path d="M19.0346 17.5186H15.8821V20.3213H19.0346V17.5186Z" fill="#00B59C"/>
</svg>
