<svg width="36" height="51" viewBox="0 0 36 51" fill="none" xmlns="http://www.w3.org/2000/svg">
<path d="M0 0H36V51L18 38.5L0 51V0Z" fill="#FB2B2B"/>
<path d="M26.7302 12.8849H25.2718C25.4642 12.5804 25.5911 12.2387 25.6273 11.8773C25.7429 10.7222 25.1346 9.68683 24.099 9.22778C23.1471 8.80583 22.0774 8.97832 21.3071 9.67697L19.4656 11.3459C19.107 10.9537 18.5914 10.7071 18.0192 10.7071C17.4461 10.7071 16.9297 10.9544 16.571 11.3479L14.7271 9.67677C13.9556 8.97813 12.8863 8.8063 11.9348 9.22802C10.8995 9.6871 10.2911 10.7229 10.4071 11.8779C10.4433 12.239 10.5702 12.5806 10.7625 12.8849H9.30833C8.58668 12.8849 8.00171 13.4699 8.00171 14.1915V16.1514C8.00171 16.5122 8.29421 16.8048 8.65504 16.8048H27.3835C27.7443 16.8048 28.0368 16.5123 28.0368 16.1514V14.1915C28.0368 13.4699 27.4518 12.8849 26.7302 12.8849ZM16.0593 12.6671V12.8849H12.9858C12.1738 12.8849 11.5347 12.1278 11.7375 11.2824C11.8268 10.91 12.0956 10.5926 12.4432 10.432C12.9205 10.2113 13.4493 10.2822 13.8502 10.645L16.0598 12.6478C16.0597 12.6543 16.0593 12.6606 16.0593 12.6671ZM24.3308 11.7038C24.2822 12.3828 23.6688 12.8849 22.988 12.8849H19.9792V12.6672C19.9792 12.6595 19.9787 12.6518 19.9787 12.6441C20.4792 12.1904 21.5651 11.2061 22.1541 10.6723C22.4888 10.3689 22.9572 10.2273 23.3901 10.3564C24.0114 10.5417 24.3763 11.0701 24.3308 11.7038Z" fill="white"/>
<path d="M9.30835 18.1113V27.6933C9.30835 28.415 9.89332 29 10.615 29H16.7126V18.1113H9.30835Z" fill="white"/>
<path d="M19.3259 18.1113V29H25.4236C26.1452 29 26.7302 28.415 26.7302 27.6933V18.1113H19.3259Z" fill="white"/>
</svg>
