<svg width="22" height="34" viewBox="0 0 22 34" fill="none" xmlns="http://www.w3.org/2000/svg">
<path d="M16.3876 22.7305C14.7462 23.4845 12.9215 23.9058 11 23.9058C9.07867 23.9058 7.25409 23.4846 5.61279 22.7306C7.1323 24.2121 9.64903 27.3366 9.96977 32.0074H7.01563C6.46552 32.0074 6.01953 32.4534 6.01953 33.0035C6.01953 33.5536 6.46552 33.9996 7.01563 33.9996H14.9844C15.5345 33.9996 15.9805 33.5536 15.9805 33.0035C15.9805 32.4534 15.5345 32.0074 14.9844 32.0074H12.03C12.21 29.3292 13.1208 26.8496 14.7454 24.6241C15.3232 23.8327 15.905 23.2 16.3876 22.7305Z" fill="white"/>
<path d="M11 0C4.95829 0 0.0429688 4.91533 0.0429688 10.957C0.0429688 16.9987 4.95829 21.9141 11 21.9141C17.0417 21.9141 21.957 16.9987 21.957 10.957C21.957 4.91533 17.0417 0 11 0ZM5.02344 11.9531C4.47333 11.9531 4.02735 11.5071 4.02735 10.957C4.02735 10.4069 4.47333 9.96094 5.02344 9.96094C5.57355 9.96094 6.01953 10.4069 6.01953 10.957C6.01953 11.5071 5.57355 11.9531 5.02344 11.9531ZM6.31126 7.67696C5.92225 7.28796 5.92225 6.6573 6.31126 6.26829C6.70026 5.87928 7.33092 5.87928 7.71993 6.26829C8.10894 6.65723 8.10894 7.28796 7.71993 7.67696C7.33099 8.06597 6.70026 8.06597 6.31126 7.67696ZM9.71219 13.6535C9.32318 14.0425 8.69252 14.0425 8.30351 13.6535C7.9145 13.2645 7.9145 12.6339 8.30351 12.2449C8.69252 11.8558 9.32318 11.8558 9.71219 12.2449C10.1011 12.6339 10.1011 13.2646 9.71219 13.6535ZM11.7044 9.66915C11.3154 10.0582 10.6847 10.0582 10.2957 9.66915C9.90669 9.28014 9.90669 8.64948 10.2957 8.26048C10.6847 7.87147 11.3154 7.87147 11.7044 8.26048C12.0933 8.64948 12.0933 9.28021 11.7044 9.66915Z" fill="white"/>
</svg>
