<svg width="22" height="22" viewBox="0 0 22 22" fill="none" xmlns="http://www.w3.org/2000/svg">
<path fill-rule="evenodd" clip-rule="evenodd" d="M8.8 0H1.1C0.492487 0 0 0.492487 0 1.1V8.8C0 9.40751 0.492487 9.9 1.1 9.9H8.8C9.40751 9.9 9.9 9.40751 9.9 8.8V1.1C9.9 0.492487 9.40751 0 8.8 0ZM2.2 7.7V2.2H7.7V7.7H2.2ZM13.2 0H20.9C21.5075 0 22 0.492487 22 1.1V8.8C22 9.40751 21.5075 9.9 20.9 9.9H13.2C12.5925 9.9 12.1 9.40751 12.1 8.8V1.1C12.1 0.492487 12.5925 0 13.2 0ZM19.8 7.7H14.3V2.2H19.8V7.7ZM13.2 12.1H20.9C21.5075 12.1 22 12.5925 22 13.2V20.9C22 21.5075 21.5075 22 20.9 22H13.2C12.5925 22 12.1 21.5075 12.1 20.9V13.2C12.1 12.5925 12.5925 12.1 13.2 12.1ZM19.8 19.8H14.3V14.3H19.8V19.8ZM1.1 12.1H8.8C9.40751 12.1 9.9 12.5925 9.9 13.2V20.9C9.9 21.5075 9.40751 22 8.8 22H1.1C0.492487 22 0 21.5075 0 20.9V13.2C0 12.5925 0.492487 12.1 1.1 12.1ZM7.7 19.8H2.2V14.3H7.7V19.8Z" fill="#555555"/>
</svg>
