<svg width="22" height="22" viewBox="0 0 22 22" fill="none" xmlns="http://www.w3.org/2000/svg">
<path fill-rule="evenodd" clip-rule="evenodd" d="M1 17C-0.333333 17 -0.333333 15 1 15C2.10457 15 3 14.1046 3 13V8C3 3.58172 6.58172 0 11 0C15.4183 0 19 3.58172 19 8V13C19 14.1046 19.8954 15 21 15C22.3333 15 22.3333 17 21 17H1ZM17 13V8C17 4.68629 14.3137 2 11 2C7.68629 2 5 4.68629 5 8V13C5 13.7286 4.80521 14.4117 4.46487 15H17.5351C17.1948 14.4117 17 13.7286 17 13ZM11 21.9965C12.0696 21.9965 13.0583 21.427 13.595 20.5018C13.9817 19.8351 13.5007 19 12.73 19H9.27C8.49929 19 8.01828 19.8351 8.405 20.5018C8.9417 21.427 9.9304 21.9965 11 21.9965Z" fill="#555555"/>
</svg>
