<svg width="20" height="22" viewBox="0 0 20 22" fill="none" xmlns="http://www.w3.org/2000/svg">
<path fill-rule="evenodd" clip-rule="evenodd" d="M9.9 11C6.86243 11 4.4 8.53757 4.4 5.5C4.4 2.46243 6.86243 0 9.9 0C12.9376 0 15.4 2.46243 15.4 5.5C15.4 8.53757 12.9376 11 9.9 11ZM19.8 20.9V18.7C19.8 15.6624 17.3376 13.2 14.3 13.2H5.5C2.46243 13.2 0 15.6624 0 18.7V20.9C0 21.5075 0.492487 22 1.1 22C1.70751 22 2.2 21.5075 2.2 20.9V18.7C2.2 16.8775 3.67746 15.4 5.5 15.4H14.3C16.1225 15.4 17.6 16.8775 17.6 18.7V20.9C17.6 21.5075 18.0925 22 18.7 22C19.3075 22 19.8 21.5075 19.8 20.9ZM13.2 5.5C13.2 7.32254 11.7225 8.8 9.9 8.8C8.07746 8.8 6.6 7.32254 6.6 5.5C6.6 3.67746 8.07746 2.2 9.9 2.2C11.7225 2.2 13.2 3.67746 13.2 5.5Z" fill="#555555"/>
</svg>
